# xmcd
#
# Track frame offsets:
# 150
# 16637
# 35191
# 52205
# 71462
# 83017
# 102004
# 117250
#
# Disc length: 1732 seconds
#
# Revision: 0
# Processed by: cddbd v1.4PL0 Copyright (c) Steve Scherf et al.
# Submitted via: Audion 3.0.2 (http://www.panic.com/audion/)
#
DISCID=6006c208
DTITLE=The Jerry Kerr Band - Itch
DYEAR=1900
DGENRE=
TTITLE0=Itch
TTITLE1=Pony
TTITLE2=Mississippi Delta
TTITLE3=I wanna be rich
TTITLE4=Clear a path
TTITLE5=Tijuana Waltz
TTITLE6=If I had wings
TTITLE7=When I get home
EXTD=
EXTT0=
EXTT1=
EXTT2=
EXTT3=
EXTT4=
EXTT5=
EXTT6=
EXTT7=
PLAYORDER=
